<?xml version="1.0" encoding="iso-8859-1"?><!-- Generator: Adobe Illustrator 16.0.0, SVG Export Plug-In . SVG Version: 6.00 Build 0) --><!DOCTYPE svg PUBLIC "-//W3C//DTD SVG 1.1//EN" "http://www.w3.org/Graphics/SVG/1.1/DTD/svg11.dtd"><svg version="1.1" id="Layer_1" xmlns="http://www.w3.org/2000/svg" xmlns:xlink="http://www.w3.org/1999/xlink" x="0px" y="0px" width="192.756px" height="192.756px" viewBox="0 0 192.756 192.756" style="enable-background:new 0 0 192.756 192.756;" xml:space="preserve"><g><polygon style="fill-rule:evenodd;clip-rule:evenodd;fill:#FFFFFF;" points="0,0 192.756,0 192.756,192.756 0,192.756 0,0	"/><path style="fill-rule:evenodd;clip-rule:evenodd;" d="M135.059,121.721c15.105,0,13.994-24.88,0.889-24.88l0,0h-39.76h-0.668l0,0	c-25.766-0.443-24.877-34.208-0.886-34.208l0,0h1.555h83.965l0,0C166.824,29.536,134.17,5.768,96.629,5.768	c0,0-0.219,0.223-0.442,0.223C46.873,6.212,6.445,46.64,6.445,95.952c0,9.108,1.11,17.55,3.554,25.769l0,0h86.188H135.059	L135.059,121.721L135.059,121.721z"/><path style="fill-rule:evenodd;clip-rule:evenodd;" d="M96.187,1.325c52.422,0,95.069,42.649,95.069,94.851	c0,52.199-42.646,94.85-95.069,94.85l0,0l0,0v-1.778l0,0l0,0c51.532,0,93.073-41.761,93.073-93.071	c0-51.091-41.541-92.852-93.073-92.852l0,0l0,0V1.325L96.187,1.325L96.187,1.325L96.187,1.325z M96.187,191.025	c-52.2,0-94.852-42.65-94.852-94.85c0-52.201,42.651-94.629,94.852-94.851l0,0v1.999l0,0c-51.314,0-92.853,41.761-92.853,92.852	c0,51.311,41.538,92.849,92.853,93.071l0,0V191.025L96.187,191.025L96.187,191.025z"/><path style="fill:none;stroke:#000000;stroke-width:0.2846;stroke-miterlimit:2.6131;" d="M96.187,1.325	c52.422,0,95.069,42.649,95.069,94.851c0,52.199-42.646,94.85-95.069,94.85c-52.2,0-94.852-42.65-94.852-94.85	C1.335,43.975,43.987,1.325,96.187,1.325 M96.187,1.325L96.187,1.325L96.187,1.325 M96.187,3.324	c51.532,0,93.073,41.761,93.073,92.852c0,51.311-41.541,93.071-93.073,93.071c-51.314,0-92.853-41.761-92.853-93.071	C3.334,45.085,44.873,3.324,96.187,3.324 M96.187,3.324L96.187,3.324"/><path style="fill-rule:evenodd;clip-rule:evenodd;" d="M110.402,134.826h-4.887h-7.551v2.663h7.551h4.887l0,0	C113.734,137.489,113.957,134.826,110.402,134.826L110.402,134.826L110.402,134.826L110.402,134.826z"/><path style="fill-rule:evenodd;clip-rule:evenodd;" d="M182.148,67.964h-69.523l0,0c-14.66-0.889-15.107,22.879-1.111,23.545l0,0	h55.975l0,0c22.438-0.444,22.438,36.652,0,37.096l0,0H96.187H12.219l0,0c13.106,33.542,45.759,57.532,83.968,57.752	c0.223,0,0.442,0,0.442,0c49.757,0,90.408-40.648,90.408-90.406C187.037,86.401,185.258,76.628,182.148,67.964L182.148,67.964	L182.148,67.964L182.148,67.964z M43.987,134.604H27.326l0,0c-1.777,0-2,2.886,0,2.886l0,0h12.437l0,0c5.778,0,5.333,7.331,0,7.331	l0,0H23.104v-2.222h16.658l0,0c1.777-0.222,2-2.442,0-2.666l0,0H27.326l0,0c-5.333,0-5.333-7.33,0-7.55l0,0h16.661V134.604	L43.987,134.604L43.987,134.604z M67.975,139.933c0,2.444-2.221,4.888-5.553,4.888c-3.112,0-6.665,0-9.554,0	c-3.995,0-5.55-2.443-5.773-4.888l0,0v-7.55h2.887v7.55l0,0c0.446,1.556,1.111,2.001,2.886,2.666l0,0h9.554l0,0	c1.555-0.442,2.22-0.888,2.667-2.666l0,0v-7.55h2.886V139.933L67.975,139.933L67.975,139.933z M91.743,145.043h-2.89l-14.88-10.217	v10.217h-2.89v-12.44h2.89l14.88,9.774v-9.774h2.89V145.043L91.743,145.043L91.743,145.043z M113.287,144.82l-5.771-4.888h-2	h-7.551v4.888h-2.67v-12.438h10.221h4.887l0,0c7.109,0.443,6.887,7.773,0,7.55l0,0l5.555,4.888H113.287L113.287,144.82	L113.287,144.82z M122.176,144.82h-2.889v-12.438h2.889V144.82L122.176,144.82L122.176,144.82z M145.941,134.604h-16.658l0,0	c-1.777,0-1.998,2.886,0,2.886l0,0h12.439l0,0c5.773,0,5.33,7.331,0,7.331l0,0h-16.66v-2.222h16.66l0,0	c1.777-0.222,2.002-2.442,0-2.666l0,0h-12.439l0,0c-5.33,0-5.33-7.33,0-7.55l0,0h16.658V134.604L145.941,134.604L145.941,134.604z M170.156,134.826h-18.215v2.663h18.215v2.224h-18.215v2.664h18.215v2.443h-20.66v-12.438h20.66V134.826L170.156,134.826	L170.156,134.826z"/></g></svg>