<?xml version="1.0" encoding="UTF-8" standalone="no"?>
<!-- Generator: Adobe Illustrator 16.0.0, SVG Export Plug-In . SVG Version: 6.00 Build 0) -->

<svg
   xmlns:dc="http://purl.org/dc/elements/1.1/"
   xmlns:cc="http://creativecommons.org/ns#"
   xmlns:rdf="http://www.w3.org/1999/02/22-rdf-syntax-ns#"
   xmlns:svg="http://www.w3.org/2000/svg"
   xmlns="http://www.w3.org/2000/svg"
   xmlns:sodipodi="http://sodipodi.sourceforge.net/DTD/sodipodi-0.dtd"
   xmlns:inkscape="http://www.inkscape.org/namespaces/inkscape"
   version="1.1"
   id="Layer_1"
   x="0px"
   y="0px"
   width="192.756px"
   height="192.756px"
   viewBox="0 0 192.756 192.756"
   style="enable-background:new 0 0 192.756 192.756;"
   xml:space="preserve"
   inkscape:version="0.91 r13725"
   sodipodi:docname="sunrise-color.svg"
   inkscape:export-filename="F:\МИ\PIC\SunRise\sunrise-color_8192.png"
   inkscape:export-xdpi="3824.9399"
   inkscape:export-ydpi="3824.9399"><metadata
     id="metadata21"><rdf:RDF><cc:Work
         rdf:about=""><dc:format>image/svg+xml</dc:format><dc:type
           rdf:resource="http://purl.org/dc/dcmitype/StillImage" /><dc:title /></cc:Work></rdf:RDF></metadata><defs
     id="defs19" /><sodipodi:namedview
     pagecolor="#ffffff"
     bordercolor="#666666"
     borderopacity="1"
     objecttolerance="10"
     gridtolerance="10"
     guidetolerance="10"
     inkscape:pageopacity="0"
     inkscape:pageshadow="2"
     inkscape:window-width="1635"
     inkscape:window-height="1001"
     id="namedview17"
     showgrid="false"
     inkscape:zoom="3.462973"
     inkscape:cx="49.105249"
     inkscape:cy="103.51521"
     inkscape:window-x="41"
     inkscape:window-y="-4"
     inkscape:window-maximized="1"
     inkscape:current-layer="layer3" /><g
     inkscape:groupmode="layer"
     id="layer3"
     inkscape:label="Layer 3"
     style="display:inline"><path
       style="fill:#ffff00;stroke:none;stroke-width:0.28459999;stroke-miterlimit:2.61310005;stroke-opacity:1"
       d="m 96.187,1.325 c 52.422,0 95.069,42.649 95.069,94.851 0,52.199 -42.646,94.85 -95.069,94.85 -52.2,0 -94.852,-42.65 -94.852,-94.85 0,-52.201 42.652,-94.851 94.852,-94.851"
       id="path4151"
       inkscape:connector-curvature="0" /><path
       style="fill:#ffff00;stroke:#000000;stroke-width:0.28459999;stroke-miterlimit:2.61310005"
       d="m 96.187,1.325 0,0 0,0"
       id="path4149"
       inkscape:connector-curvature="0" /><path
       style="fill:#ffff00;stroke:#000000;stroke-width:0.28459999;stroke-miterlimit:2.61310005"
       d="m 96.187,3.324 0,0"
       id="path11"
       inkscape:connector-curvature="0" /></g><g
     inkscape:groupmode="layer"
     id="layer2"
     inkscape:label="Layer 2"
     style="display:inline"><path
       inkscape:connector-curvature="0"
       id="path9"
       d="m 96.187,1.325 c 52.422,0 95.069,42.649 95.069,94.851 0,52.199 -42.646,94.85 -95.069,94.85 l 0,0 0,0 0,-1.778 0,0 0,0 c 51.532,0 93.073,-41.761 93.073,-93.071 0,-51.091 -41.541,-92.852 -93.073,-92.852 l 0,0 0,0 0,-2 0,0 0,0 0,0 z m 0,189.7 c -52.2,0 -94.852,-42.65 -94.852,-94.85 0,-52.201 42.651,-94.629 94.852,-94.851 l 0,0 0,1.999 0,0 c -51.314,0 -92.853,41.761 -92.853,92.852 0,51.311 41.538,92.849 92.853,93.071 l 0,0 0,1.779 0,0 0,0 z"
       style="clip-rule:evenodd;fill:#ff0000;fill-rule:evenodd" /></g><g
     inkscape:groupmode="layer"
     id="layer4"
     inkscape:label="Layer 4"
     style="display:inline"><path
       style="fill:#ff0000;fill-opacity:1;stroke:none;stroke-opacity:1"
       d="M 96.378906,6.3789062 A 90,90 0 0 0 8.171875,78.498047 90,90 0 0 0 6.9042969,86.894531 C 6.860618,87.324103 6.8265793,87.756223 6.7890625,88.1875 a 90,90 0 0 0 -0.328125,6.556641 c -0.0054,0.402327 -0.015625,0.803497 -0.015625,1.207031 0,2.830292 0.1207025,5.591678 0.3417969,8.306638 a 90,90 0 0 0 0.875,7.20899 c 0.017011,0.10388 0.031444,0.20873 0.048828,0.3125 a 90,90 0 0 0 2.3691406,9.9414 l 86.107422,0 38.87109,0 c 15.105,0 13.99368,-24.878903 0.88868,-24.878903 l -39.75977,0 -0.667969,0 c -25.766,-0.443 -24.875765,-34.208985 -0.884765,-34.208985 l 1.554687,0 83.564457,0 A 90,90 0 0 0 96.378906,6.3789062 Z"
       id="path4144"
       inkscape:connector-curvature="0" /></g><polygon
     id="polygon5"
     points="192.756,192.756 0,192.756 0,0 0,0 192.756,0 "
     style="clip-rule:evenodd;fill:none;fill-rule:evenodd" /><g
     inkscape:groupmode="layer"
     id="layer1"
     inkscape:label="Layer 1"
     style="display:inline"><path
       inkscape:connector-curvature="0"
       id="path15"
       d="m 182.148,67.964 -69.523,0 0,0 c -14.66,-0.889 -15.107,22.879 -1.111,23.545 l 0,0 55.975,0 0,0 c 22.438,-0.444 22.438,36.652 0,37.096 l 0,0 -71.302,0 -83.968,0 0,0 c 13.106,33.542 45.759,57.532 83.968,57.752 0.223,0 0.442,0 0.442,0 49.757,0 90.408,-40.648 90.408,-90.406 0,-9.55 -1.779,-19.323 -4.889,-27.987 l 0,0 0,0 0,0 z m -138.161,66.64 -16.661,0 0,0 c -1.777,0 -2,2.886 0,2.886 l 0,0 12.437,0 0,0 c 5.778,0 5.333,7.331 0,7.331 l 0,0 -16.659,0 0,-2.222 16.658,0 0,0 c 1.777,-0.222 2,-2.442 0,-2.666 l 0,0 -12.436,0 0,0 c -5.333,0 -5.333,-7.33 0,-7.55 l 0,0 16.661,0 0,2.221 0,0 0,0 z m 23.988,5.329 c 0,2.444 -2.221,4.888 -5.553,4.888 -3.112,0 -6.665,0 -9.554,0 -3.995,0 -5.55,-2.443 -5.773,-4.888 l 0,0 0,-7.55 2.887,0 0,7.55 0,0 c 0.446,1.556 1.111,2.001 2.886,2.666 l 0,0 9.554,0 0,0 c 1.555,-0.442 2.22,-0.888 2.667,-2.666 l 0,0 0,-7.55 2.886,0 0,7.55 0,0 0,0 z m 23.768,5.11 -2.89,0 -14.88,-10.217 0,10.217 -2.89,0 0,-12.44 2.89,0 14.88,9.774 0,-9.774 2.89,0 0,12.44 0,0 0,0 z m 21.544,-0.223 -5.771,-4.888 -2,0 -7.551,0 0,4.888 -2.67,0 0,-12.438 10.221,0 4.887,0 0,0 c 7.109,0.443 6.887,7.773 0,7.55 l 0,0 5.555,4.888 -2.671,0 0,0 0,0 z m 8.889,0 -2.889,0 0,-12.438 2.889,0 0,12.438 0,0 0,0 z m 23.765,-10.216 -16.658,0 0,0 c -1.777,0 -1.998,2.886 0,2.886 l 0,0 12.439,0 0,0 c 5.773,0 5.33,7.331 0,7.331 l 0,0 -16.66,0 0,-2.222 16.66,0 0,0 c 1.777,-0.222 2.002,-2.442 0,-2.666 l 0,0 -12.439,0 0,0 c -5.33,0 -5.33,-7.33 0,-7.55 l 0,0 16.658,0 0,2.221 0,0 0,0 z m 24.215,0.222 -18.215,0 0,2.663 18.215,0 0,2.224 -18.215,0 0,2.664 18.215,0 0,2.443 -20.66,0 0,-12.438 20.66,0 0,2.444 0,0 0,0 z"
       style="clip-rule:evenodd;fill:#ff0000;fill-rule:evenodd" /><path
       inkscape:connector-curvature="0"
       id="path13"
       d="m 110.402,134.826 -4.887,0 -7.551,0 0,2.663 7.551,0 4.887,0 0,0 c 3.332,0 3.555,-2.663 0,-2.663 l 0,0 0,0 0,0 z"
       style="clip-rule:evenodd;fill:#ff0000;fill-rule:evenodd" /></g></svg>